<?xml version="1.0" standalone="no"?>
<!DOCTYPE svg PUBLIC "-//W3C//DTD SVG 20010904//EN"
 "http://www.w3.org/TR/2001/REC-SVG-20010904/DTD/svg10.dtd">
<svg version="1.0" xmlns="http://www.w3.org/2000/svg"
 width="56.000000pt" height="52.000000pt" viewBox="0 0 56.000000 52.000000"
 preserveAspectRatio="xMidYMid meet">

<g transform="translate(0.000000,52.000000) scale(0.100000,-0.100000)"
fill="#000000" stroke="none">
<path d="M22 498 c-17 -17 -17 -459 0 -476 9 -9 78 -12 249 -12 203 0 240 2
253 16 14 13 16 49 16 238 0 159 -3 225 -12 234 -17 17 -489 17 -506 0z m177
-77 c13 -24 -8 -55 -34 -50 -28 6 -42 34 -26 53 18 22 48 20 60 -3z m-9 -90
c0 -5 -9 -49 -21 -97 -23 -97 -17 -118 24 -91 17 11 29 34 39 76 15 59 15 61
-3 61 -11 0 -19 7 -19 18 0 32 16 43 56 40 34 -3 39 -6 36 -26 l-3 -22 25 25
c49 49 106 22 106 -49 0 -23 -5 -58 -11 -80 -12 -45 2 -72 20 -37 13 24 31 28
31 7 0 -24 -41 -66 -64 -66 -13 0 -31 9 -41 20 -18 19 -18 24 -3 85 12 51 13
68 3 81 -19 27 -53 9 -65 -34 -44 -160 -40 -152 -66 -152 -15 0 -24 6 -24 16
0 14 -2 14 -22 0 -31 -22 -61 -20 -83 4 -18 20 -17 40 11 148 5 16 2 22 -9 22
-22 0 -26 11 -16 38 7 18 16 22 54 22 25 0 45 -4 45 -9z"/>
</g>
</svg>
